<?xml version="1.0" encoding="UTF-8" standalone="no"?>
<!-- Generator: Adobe Illustrator 16.0.0, SVG Export Plug-In . SVG Version: 6.00 Build 0)  -->

<svg
   xmlns:dc="http://purl.org/dc/elements/1.1/"
   xmlns:cc="http://creativecommons.org/ns#"
   xmlns:rdf="http://www.w3.org/1999/02/22-rdf-syntax-ns#"
   xmlns:svg="http://www.w3.org/2000/svg"
   xmlns="http://www.w3.org/2000/svg"
   xmlns:sodipodi="http://sodipodi.sourceforge.net/DTD/sodipodi-0.dtd"
   xmlns:inkscape="http://www.inkscape.org/namespaces/inkscape"
   version="1.1"
   id="Layer_1"
   x="0px"
   y="0px"
   width="1048.713px"
   height="581.696px"
   viewBox="0 208.952 1048.713 581.696"
   style="enable-background:new 0 208.952 1048.713 581.696;"
   xml:space="preserve"
   inkscape:version="0.48.5 r10040"
   sodipodi:docname="soundcloud.svg"><metadata
   id="metadata3824"><rdf:RDF><cc:Work
       rdf:about=""><dc:format>image/svg+xml</dc:format><dc:type
         rdf:resource="http://purl.org/dc/dcmitype/StillImage" /></cc:Work></rdf:RDF></metadata><defs
   id="defs3822" /><sodipodi:namedview
   pagecolor="#ffffff"
   bordercolor="#666666"
   borderopacity="1"
   objecttolerance="10"
   gridtolerance="10"
   guidetolerance="10"
   inkscape:pageopacity="0"
   inkscape:pageshadow="2"
   inkscape:window-width="1536"
   inkscape:window-height="803"
   id="namedview3820"
   showgrid="false"
   inkscape:zoom="0.27271522"
   inkscape:cx="524.35651"
   inkscape:cy="290.84799"
   inkscape:window-x="-8"
   inkscape:window-y="-8"
   inkscape:window-maximized="1"
   inkscape:current-layer="Layer_1" />
<path
   d="M0,686.216c0,13.014,4.718,22.854,14.152,29.524c9.435,6.669,19.52,9.027,30.256,7.076  c10.085-1.952,17.161-5.531,21.229-10.736c4.066-5.205,6.1-13.827,6.1-25.864v-141.52c0-10.086-3.497-18.626-10.492-25.62  c-6.994-6.995-15.534-10.492-25.62-10.492c-9.76,0-18.137,3.497-25.132,10.492C3.498,526.07,0,534.61,0,544.696V686.216L0,686.216z   M112.24,746.728c0,9.436,3.335,16.511,10.004,21.229c6.67,4.718,15.21,7.076,25.62,7.076c10.736,0,19.438-2.359,26.108-7.076  c6.669-4.717,10.004-11.793,10.004-21.229V416.84c0-9.76-3.498-18.138-10.492-25.132c-6.995-6.994-15.535-10.492-25.62-10.492  c-9.76,0-18.138,3.498-25.132,10.492c-6.995,6.995-10.492,15.372-10.492,25.132V746.728z M223.992,762.344  c0,9.435,3.416,16.511,10.248,21.229c6.832,4.717,15.616,7.076,26.353,7.076c10.41,0,18.95-2.359,25.619-7.076  c6.67-4.718,10.005-11.794,10.005-21.229V461.248c0-10.085-3.498-18.707-10.492-25.864c-6.995-7.157-15.372-10.735-25.132-10.735  c-10.086,0-18.707,3.578-25.864,10.735s-10.736,15.779-10.736,25.864V762.344z M336.232,763.808  c0,17.894,12.037,26.841,36.112,26.841c24.074,0,36.111-8.947,36.111-26.841v-488c0-27.328-8.296-42.781-24.888-46.36  c-10.736-2.603-21.31,0.488-31.72,9.272c-10.411,8.784-15.616,21.146-15.616,37.088V763.808z M450.425,777.96V247.016  c0-16.917,5.042-27.002,15.128-30.256c21.797-5.205,43.432-7.808,64.904-7.808c49.775,0,96.136,11.712,139.079,35.136  c42.944,23.424,77.674,55.388,104.188,95.892c26.515,40.505,41.887,85.156,46.116,133.957c19.845-8.459,40.991-12.688,63.439-12.688  c45.547,0,84.506,16.104,116.876,48.312c32.371,32.209,48.557,70.923,48.557,116.145c0,45.547-16.186,84.424-48.557,116.632  c-32.37,32.208-71.166,48.312-116.388,48.312l-424.56-0.488c-2.929-0.976-5.125-2.766-6.589-5.368S450.425,779.912,450.425,777.96  L450.425,777.96z"
   id="path3818"
   style="fill:#f7620e;fill-opacity:1" />
</svg>