<?xml version="1.0" ?><svg height="500" id="svg2" version="1.1" width="500" xmlns="http://www.w3.org/2000/svg" xmlns:cc="http://creativecommons.org/ns#" xmlns:dc="http://purl.org/dc/elements/1.1/" xmlns:inkscape="http://www.inkscape.org/namespaces/inkscape" xmlns:rdf="http://www.w3.org/1999/02/22-rdf-syntax-ns#" xmlns:sodipodi="http://sodipodi.sourceforge.net/DTD/sodipodi-0.dtd" xmlns:svg="http://www.w3.org/2000/svg"><defs id="defs4"/><g id="layer1" transform="translate(0,-552.36218)"><path d="m 0,552.36218 0,500.00002 500,0 0,-500.00002 z" id="rect2989-1" style="fill:#ff5200;fill-opacity:1;stroke:none"/><g id="layer1-9" transform="translate(-549.00515,80.294372)"/><g id="layer1-6" transform="translate(-575.71429,39.999999)"/><path d="m 500,500 -260.39062,0 -186.210942,-186.21094 2.208209,-46.35999 11.521146,11.52114 3.339732,-25.1655 12.65067,12.65067 3.223272,-19.66301 14.380583,14.38058 1.63481,-15.85345 13.04682,13.04682 3.23899,-10.0608 13.58948,13.58948 2.66545,-39.29882 13.17934,13.17934 3.57621,-28.38808 13.00571,13.00571 3.26255,-20.30888 13.06885,13.06885 3.87581,-16.1242 13.21429,13.21429 3.30357,-11.33928 12.58928,12.58928 4.50893,-9.50892 10.44643,10.44643 6.74107,-26.91965 10.84822,10.84822 5.98214,-20.53572 25.74669,25.74669 77.62849,-13.76472 68.07322,68.07322 11.12746,-3.58289 L 500,317.20001 z" id="path3047" style="fill:#000000;stroke:none;stroke-width:1px;stroke-linecap:butt;stroke-linejoin:miter;stroke-opacity:1;opacity:0.3" transform="translate(0,552.36218)"/><path d="M 295.3125 163.1875 C 284.20442 163.1875 273.39394 165.39377 263.84375 169.09375 C 260.11942 170.52992 259.12615 171.96328 259.09375 174.84375 L 259.09375 331 C 259.12618 333.98595 261.46899 336.50418 264.40625 336.8125 C 264.53608 336.8288 399.90494 336.875 400.78125 336.875 C 427.96318 336.875 450 314.83008 450 287.65625 C 450 260.48244 427.95507 238.5 400.78125 238.5 C 394.04663 238.5 387.60021 239.87018 381.75 242.3125 C 377.82281 197.96943 340.66981 163.1875 295.3125 163.1875 z M 249.03125 174.6875 C 246.08586 174.6875 243.6737 177.11591 243.625 180.09375 C 243.625 180.09375 240.96523 265.74896 241.40625 290.9375 C 241.84726 316.12603 243.625 331.15625 243.625 331.15625 C 243.6737 334.08541 246.08586 336.5 249.03125 336.5 C 251.97664 336.5 254.3888 334.0866 254.4375 331.125 C 254.4375 331.125 256.61894 304.36308 256.875 290.9375 C 257.57963 253.99318 254.4375 180.09375 254.4375 180.09375 C 254.39694 177.11591 251.98477 174.6875 249.03125 174.6875 z M 231.75 184.28125 C 229.22796 184.54018 227.2332 186.69574 227.1875 189.3125 C 227.1875 189.3125 224.7738 257.04612 225.25 290.90625 C 225.44161 304.5303 227.1875 331.71875 227.1875 331.71875 C 227.2362 334.47751 229.45998 336.78125 232.21875 336.78125 C 234.95841 336.78125 237.2383 334.52585 237.3125 331.75 L 237.3125 331.71875 C 237.3125 331.71875 239.25425 304.55415 239.46875 290.9375 C 240.00232 257.06582 237.3125 189.3125 237.3125 189.3125 C 237.25566 186.52128 234.9694 184.28125 232.21875 184.28125 C 232.04633 184.28125 231.91814 184.26405 231.75 184.28125 z M 182 195.9375 C 179.80111 195.9375 178.0105 197.67369 177.9375 199.9375 C 177.9375 199.9375 175.07834 268.77543 175.4375 290.90625 C 175.79666 313.03707 177.9375 332.625 177.9375 332.625 C 178.0105 334.86445 179.80111 336.65625 182 336.65625 C 184.20701 336.65625 185.9895 334.87257 186.0625 332.625 C 186.0625 332.625 188.49593 313.04178 188.90625 290.90625 C 189.31657 268.77072 186.0625 199.9375 186.0625 199.9375 C 185.9895 197.67369 184.20701 195.9375 182 195.9375 z M 198.625 197.90625 C 196.21515 197.90625 194.27555 199.80769 194.21875 202.25 C 194.21875 202.25 191.46598 261.35432 191.90625 290.90625 C 192.11191 304.71039 194.21875 332.25 194.21875 332.25 C 194.26745 334.67608 196.21515 336.625 198.625 336.625 C 201.00779 336.625 202.94985 334.70786 203.03125 332.28125 L 203.03125 332.25 C 203.03125 332.25 205.36493 304.71516 205.59375 290.90625 C 206.08346 261.3527 203.03125 202.25 203.03125 202.25 C 202.96639 199.80769 201.01863 197.90625 198.625 197.90625 z M 165.53125 199.21875 C 163.51086 199.21875 161.8855 200.82912 161.8125 202.90625 C 161.8125 202.90625 158.69413 269.2228 159.0625 290.90625 C 159.43087 312.5897 161.8125 332.90625 161.8125 332.90625 C 161.87747 334.95099 163.51086 336.59375 165.53125 336.59375 C 167.51664 336.59375 169.12155 334.98268 169.21875 332.9375 L 169.21875 332.90625 C 169.21875 332.90625 172.04581 304.94225 172.3125 290.90625 C 172.86996 261.56588 169.21875 202.90625 169.21875 202.90625 C 169.13762 200.82907 167.52729 199.21875 165.53125 199.21875 z M 215.375 200.78125 C 212.7704 200.78125 210.6818 202.88608 210.625 205.53125 C 210.625 205.53125 208.10935 262.44125 208.5 290.90625 C 208.68836 304.63177 210.65625 332.03125 210.65625 332.03125 C 210.70495 334.62774 212.7704 336.6875 215.375 336.6875 C 217.96338 336.6875 220.02875 334.61393 220.09375 331.96875 C 220.09375 331.96875 222.26301 304.61401 222.46875 290.90625 C 222.89602 262.43948 220.09375 205.53125 220.09375 205.53125 C 220.02889 202.90232 217.96338 200.78125 215.375 200.78125 z M 149.15625 206.34375 C 147.34682 206.34375 145.8936 207.80505 145.8125 209.6875 C 145.8125 209.6875 142.42926 263.8237 142.875 290.90625 C 143.1083 305.08065 145.8125 333.3125 145.8125 333.3125 C 145.89362 335.1625 147.35494 336.65625 149.15625 336.65625 C 150.94705 336.65625 152.45762 335.19453 152.5625 333.34375 L 152.5625 333.3125 C 152.5625 333.3125 155.46289 311.54066 155.84375 290.90625 C 156.22461 270.27184 152.5625 209.6875 152.5625 209.6875 C 152.47324 207.80504 150.96566 206.34375 149.15625 206.34375 z M 132.9375 221.78125 C 131.32281 221.78125 129.99555 223.10166 129.90625 224.78125 C 129.90625 224.78125 126.54697 272.7107 126.78125 290.875 C 127.01553 309.03931 129.90625 333.59375 129.90625 333.59375 C 129.9955 335.25713 131.32281 336.59375 132.9375 336.59375 C 134.54407 336.59375 135.87945 335.27336 135.96875 333.59375 C 135.96875 333.59375 139.29098 305.16293 139.5 290.875 C 139.82268 268.81705 135.96875 224.78125 135.96875 224.78125 C 135.87948 223.10166 134.54407 221.78125 132.9375 221.78125 z M 100.875 244.75 C 99.633567 244.75 98.62865 245.7318 98.53125 247.0625 C 98.53125 247.0625 94.94911 276.46647 94.96875 290.875 C 94.988392 305.28354 98.53125 333.21875 98.53125 333.21875 C 98.628645 334.53322 99.625437 335.5 100.875 335.5 C 102.0921 335.5 103.10514 334.53322 103.21875 333.21875 C 103.21875 333.21875 107.19695 305.05889 107.21875 290.875 C 107.24126 276.21523 103.21875 247.0625 103.21875 247.0625 C 103.10514 245.7318 102.0921 244.75 100.875 244.75 z M 85.03125 246.28125 C 83.976426 246.28125 83.105486 247.11404 83 248.25 C 83 248.26616 79.25776 276.61343 79.28125 290.875 C 79.303885 304.61724 83 331.90625 83 331.90625 C 83.105486 333.05032 83.976426 333.875 85.03125 333.875 C 86.069849 333.875 86.909538 333.08847 87.03125 331.96875 C 87.03125 331.96875 91.22475 304.64479 91.25 290.875 C 91.276177 276.59729 87.03125 248.25 87.03125 248.25 C 86.901425 247.10593 86.069849 246.28125 85.03125 246.28125 z M 116.84375 247.59375 C 115.39945 247.59375 114.24555 248.71765 114.15625 250.21875 C 114.15625 250.21875 110.8393 277.28375 110.8125 290.875 C 110.78433 305.14835 114.15625 333.5625 114.15625 333.5625 C 114.24551 335.08794 115.39134 336.21875 116.84375 336.21875 C 118.26162 336.21875 119.41174 335.0947 119.53125 333.59375 L 119.53125 333.5625 C 119.53125 333.5625 123.3434 304.81935 123.3125 290.875 C 123.28157 276.93065 119.53125 250.21875 119.53125 250.21875 C 119.43385 248.70954 118.27181 247.59375 116.84375 247.59375 z M 69.28125 253.3125 C 68.437399 253.3125 67.746712 253.98936 67.625 254.90625 C 67.625 254.92252 63.67252 278.95709 63.6875 290.875 C 63.702476 302.79291 67.625 326 67.625 326 C 67.746712 326.93312 68.46865 327.59375 69.3125 327.59375 C 70.156361 327.59375 70.862062 326.94934 71 326 C 71 326 75.42076 302.67861 75.4375 290.875 C 75.454618 278.80196 71 254.90625 71 254.90625 C 70.862062 253.95691 70.125112 253.3125 69.28125 253.3125 z M 54.53125 267.0625 C 53.695501 267.0625 53.01985 267.70812 52.90625 268.625 C 52.90625 268.625 49.9915 283.46879 50 290.875 C 50.008508 298.28121 52.90625 312.6875 52.90625 312.6875 C 53.01985 313.60439 53.703624 314.25 54.53125 314.25 C 55.34265 314.25 55.995175 313.58817 56.125 312.6875 C 56.125 312.6875 59.58374 298.24318 59.59375 290.875 C 59.603934 283.37805 56.125 268.625 56.125 268.625 C 56.003288 267.70812 55.34265 267.0625 54.53125 267.0625 z " id="rect2989-7" style="fill:#ffffff;fill-opacity:1;stroke:none" transform="translate(0,552.36218)"/></g></svg>